<?xml version="1.0" encoding="UTF-8"?>
<svg xmlns="http://www.w3.org/2000/svg" xmlns:xlink="http://www.w3.org/1999/xlink" width="80px" height="69px" viewBox="0 0 79 69" version="1.1">
<g id="surface1">
<path style=" stroke:none;fill-rule:nonzero;fill:rgb(0%,0%,0%);fill-opacity:1;" d="M 37.960938 1.832031 C 35.714844 2.183594 33.359375 3.515625 31.839844 5.28125 C 30.253906 7.128906 29.386719 9.296875 29.285156 11.683594 L 29.238281 12.71875 L 26.734375 12.71875 C 24.394531 12.71875 24.222656 12.722656 24.222656 12.84375 C 24.222656 12.917969 24.039062 15.65625 23.824219 18.925781 L 23.425781 24.871094 L 21.632812 31.746094 C 20.644531 35.523438 19.859375 38.628906 19.875 38.644531 C 19.890625 38.660156 21.296875 37.035156 23.007812 35.03125 C 35.863281 19.929688 39.441406 15.730469 39.558594 15.613281 C 39.683594 15.476562 39.804688 15.605469 42.871094 19.203125 C 47.515625 24.648438 54.976562 33.40625 57.367188 36.21875 C 58.515625 37.566406 59.457031 38.636719 59.472656 38.597656 C 59.488281 38.5625 58.695312 35.433594 57.714844 31.65625 L 55.929688 24.78125 L 55.5625 19.140625 C 55.351562 16.039062 55.167969 13.324219 55.144531 13.113281 L 55.109375 12.71875 L 52.613281 12.703125 L 50.117188 12.679688 L 50.0625 11.746094 C 49.984375 10.203125 49.695312 9.035156 49.042969 7.652344 C 47.589844 4.5625 44.714844 2.386719 41.375 1.832031 C 40.566406 1.699219 38.804688 1.699219 37.960938 1.832031 Z M 41.167969 3.777344 C 44.382812 4.390625 46.9375 6.71875 47.8125 9.835938 C 48.019531 10.578125 48.152344 11.519531 48.152344 12.246094 L 48.152344 12.71875 L 39.691406 12.703125 L 31.226562 12.679688 L 31.203125 12.191406 C 31.171875 11.550781 31.300781 10.613281 31.527344 9.820312 C 32.410156 6.746094 34.953125 4.421875 38.121094 3.785156 C 38.824219 3.644531 40.441406 3.636719 41.167969 3.777344 Z M 29.394531 16.667969 C 29.617188 17.0625 30.253906 17.242188 30.667969 17.03125 C 30.765625 16.980469 30.929688 16.824219 31.019531 16.6875 C 31.164062 16.464844 31.1875 16.34375 31.1875 15.703125 C 31.1875 15.238281 31.21875 14.960938 31.261719 14.960938 C 31.304688 14.960938 31.5 15.125 31.699219 15.320312 C 32.707031 16.335938 32.433594 18.011719 31.160156 18.6875 C 30.664062 18.949219 29.914062 18.964844 29.402344 18.730469 C 28.238281 18.191406 27.800781 16.703125 28.507812 15.648438 C 28.617188 15.476562 28.824219 15.253906 28.964844 15.148438 L 29.226562 14.953125 L 29.261719 15.722656 C 29.285156 16.148438 29.34375 16.570312 29.394531 16.667969 Z M 48.152344 15.640625 C 48.152344 16.425781 48.269531 16.769531 48.625 16.996094 C 48.976562 17.210938 49.5 17.144531 49.804688 16.839844 C 50.035156 16.605469 50.042969 16.585938 50.0625 15.820312 C 50.085938 15.335938 50.125 15.035156 50.167969 15.035156 C 50.34375 15.035156 50.722656 15.410156 50.921875 15.785156 C 51.167969 16.238281 51.25 16.898438 51.117188 17.378906 C 50.902344 18.164062 50.109375 18.8125 49.265625 18.894531 C 48.484375 18.976562 47.632812 18.484375 47.265625 17.757812 C 47.019531 17.273438 46.996094 16.351562 47.226562 15.894531 C 47.367188 15.597656 47.960938 14.960938 48.085938 14.960938 C 48.121094 14.960938 48.152344 15.269531 48.152344 15.640625 Z M 48.152344 15.640625 "/>
<path style=" stroke:none;fill-rule:nonzero;fill:rgb(0%,0%,0%);fill-opacity:1;" d="M 36.515625 25.523438 C 34.789062 27.550781 30.277344 32.847656 26.492188 37.289062 L 19.609375 45.371094 L 20.789062 45.390625 C 21.429688 45.398438 21.980469 45.4375 22.007812 45.464844 C 22.03125 45.496094 22.003906 46.355469 21.929688 47.390625 C 21.859375 48.414062 21.816406 49.28125 21.832031 49.3125 C 21.847656 49.347656 29.890625 49.371094 39.714844 49.371094 C 56.664062 49.371094 57.5625 49.363281 57.5625 49.238281 C 57.5625 49.167969 57.507812 48.421875 57.449219 47.574219 C 57.390625 46.730469 57.339844 45.898438 57.339844 45.722656 L 57.339844 45.40625 L 58.53125 45.40625 C 59.242188 45.40625 59.710938 45.375 59.695312 45.339844 C 59.6875 45.292969 57.976562 43.265625 55.894531 40.828125 C 53.820312 38.390625 49.417969 33.226562 46.121094 29.359375 C 42.832031 25.492188 40.027344 22.21875 39.898438 22.082031 L 39.664062 21.835938 Z M 38.964844 37.441406 L 38.964844 39.273438 L 37.136719 39.257812 L 35.300781 39.234375 L 35.277344 37.515625 C 35.269531 36.570312 35.277344 35.757812 35.292969 35.703125 C 35.320312 35.628906 35.742188 35.605469 37.152344 35.605469 L 38.964844 35.605469 Z M 44.078125 37.441406 L 44.078125 39.273438 L 40.375 39.273438 L 40.375 35.605469 L 44.078125 35.605469 Z M 38.964844 42.5625 L 38.964844 44.433594 L 37.160156 44.433594 C 35.582031 44.433594 35.34375 44.417969 35.308594 44.3125 C 35.246094 44.15625 35.246094 40.804688 35.3125 40.746094 C 35.335938 40.714844 36.171875 40.695312 37.167969 40.695312 L 38.964844 40.695312 Z M 44.0625 42.542969 L 44.042969 44.398438 L 42.210938 44.417969 L 40.375 44.433594 L 40.375 40.695312 L 44.078125 40.695312 Z M 44.0625 42.542969 "/>
<path style=" stroke:none;fill-rule:nonzero;fill:rgb(0%,0%,0%);fill-opacity:1;" d="M 7.261719 61.152344 L 7.261719 66.578125 L 8.726562 66.5625 L 10.1875 66.539062 L 10.207031 64.617188 C 10.222656 62.761719 10.230469 62.6875 10.371094 62.6875 C 10.476562 62.6875 10.535156 62.769531 10.59375 62.964844 C 10.628906 63.121094 10.875 63.996094 11.128906 64.90625 L 11.578125 66.578125 L 13.203125 66.578125 C 14.089844 66.578125 14.816406 66.554688 14.816406 66.53125 C 14.816406 66.507812 14.496094 65.476562 14.113281 64.242188 L 13.417969 61.992188 L 13.808594 61.558594 C 14.363281 60.957031 14.535156 60.488281 14.570312 59.433594 C 14.667969 57.210938 13.867188 56.074219 12.015625 55.804688 C 11.742188 55.765625 10.5625 55.730469 9.394531 55.730469 L 7.261719 55.730469 Z M 10.882812 58.503906 C 11.273438 58.648438 11.46875 59.214844 11.371094 59.957031 C 11.304688 60.53125 11.105469 60.75 10.609375 60.800781 L 10.222656 60.839844 L 10.222656 58.421875 L 10.4375 58.421875 C 10.550781 58.421875 10.75 58.460938 10.882812 58.503906 Z M 10.882812 58.503906 "/>
<path style=" stroke:none;fill-rule:nonzero;fill:rgb(0%,0%,0%);fill-opacity:1;" d="M 36.796875 55.773438 C 36.765625 55.804688 36.746094 58.25 36.746094 61.207031 L 36.746094 66.578125 L 38.246094 66.5625 L 39.746094 66.539062 L 39.765625 64.535156 L 39.78125 62.535156 L 41.707031 62.535156 L 41.707031 66.578125 L 44.671875 66.578125 L 44.65625 61.167969 L 44.632812 55.765625 L 43.175781 55.746094 L 41.707031 55.730469 L 41.707031 59.992188 L 39.78125 59.992188 L 39.765625 57.875 L 39.746094 55.765625 L 38.292969 55.746094 C 37.5 55.738281 36.824219 55.753906 36.796875 55.773438 Z M 36.796875 55.773438 "/>
<path style=" stroke:none;fill-rule:nonzero;fill:rgb(0%,0%,0%);fill-opacity:1;" d="M 31.824219 56.761719 C 31.804688 56.792969 31.765625 57.089844 31.734375 57.421875 C 31.65625 58.324219 31.648438 58.347656 31.113281 58.347656 L 30.667969 58.347656 L 30.667969 60.515625 L 31.484375 60.515625 L 31.484375 62.550781 C 31.484375 64.90625 31.550781 65.5 31.839844 65.96875 C 32.152344 66.480469 32.582031 66.671875 33.5 66.710938 C 34.277344 66.75 35.558594 66.671875 35.683594 66.589844 C 35.730469 66.5625 35.78125 66.046875 35.8125 65.394531 L 35.863281 64.257812 L 35.203125 64.257812 C 34.664062 64.257812 34.527344 64.234375 34.492188 64.136719 C 34.46875 64.070312 34.449219 63.234375 34.449219 62.265625 L 34.449219 60.515625 L 35.847656 60.515625 L 35.886719 60.121094 C 35.90625 59.910156 35.945312 59.425781 35.957031 59.042969 L 36.003906 58.355469 L 35.242188 58.332031 L 34.484375 58.308594 L 34.449219 57.523438 L 34.410156 56.738281 L 33.136719 56.71875 C 32.441406 56.710938 31.847656 56.722656 31.824219 56.761719 Z M 31.824219 56.761719 "/>
<path style=" stroke:none;fill-rule:nonzero;fill:rgb(0%,0%,0%);fill-opacity:1;" d="M 18.222656 58.054688 C 17.542969 58.152344 16.757812 58.558594 16.34375 59.027344 C 15.667969 59.785156 15.386719 60.703125 15.378906 62.199219 C 15.371094 63.40625 15.492188 64.046875 15.851562 64.820312 C 16.214844 65.597656 16.683594 66.066406 17.410156 66.417969 L 17.964844 66.6875 L 19.222656 66.679688 C 20.277344 66.679688 20.59375 66.652344 21.164062 66.507812 C 21.542969 66.417969 21.867188 66.316406 21.890625 66.277344 C 21.933594 66.210938 21.726562 64.175781 21.675781 64.121094 C 21.652344 64.109375 21.328125 64.167969 20.949219 64.265625 C 20.007812 64.496094 19.054688 64.503906 18.765625 64.289062 C 18.535156 64.117188 18.417969 63.898438 18.335938 63.523438 L 18.28125 63.285156 L 20.214844 63.285156 C 21.394531 63.285156 22.15625 63.253906 22.1875 63.210938 C 22.289062 63.046875 22.320312 60.832031 22.230469 60.359375 C 21.996094 59.15625 21.3125 58.40625 20.222656 58.136719 C 19.714844 58.019531 18.757812 57.972656 18.222656 58.054688 Z M 19.503906 60.824219 C 19.578125 60.9375 19.667969 61.175781 19.683594 61.371094 L 19.726562 61.714844 L 18.28125 61.714844 L 18.3125 61.300781 C 18.355469 60.734375 18.511719 60.578125 18.988281 60.605469 C 19.285156 60.621094 19.386719 60.667969 19.503906 60.824219 Z M 19.503906 60.824219 "/>
<path style=" stroke:none;fill-rule:nonzero;fill:rgb(0%,0%,0%);fill-opacity:1;" d="M 27.585938 58.042969 C 27.15625 58.117188 26.609375 58.339844 26.203125 58.625 C 26.054688 58.730469 25.914062 58.804688 25.90625 58.789062 C 25.890625 58.773438 25.847656 58.640625 25.808594 58.496094 L 25.734375 58.234375 L 23.078125 58.234375 L 23.078125 66.539062 L 24.542969 66.5625 L 26.003906 66.578125 L 26.003906 63.777344 C 26.003906 60.621094 25.957031 60.875 26.574219 60.769531 C 27.128906 60.683594 27.113281 60.597656 27.113281 63.777344 L 27.113281 66.578125 L 30.085938 66.578125 L 30.0625 62.933594 L 30.039062 59.28125 L 29.863281 58.921875 C 29.667969 58.527344 29.367188 58.257812 28.964844 58.136719 C 28.582031 58.019531 28.015625 57.980469 27.585938 58.042969 Z M 27.585938 58.042969 "/>
<path style=" stroke:none;fill-rule:nonzero;fill:rgb(0%,0%,0%);fill-opacity:1;" d="M 48.484375 58.054688 C 47.085938 58.257812 46.277344 58.992188 45.886719 60.425781 C 45.699219 61.078125 45.65625 63.148438 45.8125 63.949219 C 46.035156 65.140625 46.546875 65.941406 47.34375 66.34375 C 47.980469 66.667969 48.484375 66.75 49.523438 66.710938 C 50.507812 66.671875 51.003906 66.523438 51.554688 66.128906 C 52.390625 65.507812 52.820312 64.226562 52.820312 62.320312 C 52.820312 61.257812 52.730469 60.652344 52.472656 59.917969 C 52.210938 59.1875 51.605469 58.535156 50.9375 58.28125 C 50.210938 58.011719 49.359375 57.929688 48.484375 58.054688 Z M 49.671875 60.59375 C 49.988281 60.949219 49.988281 63.972656 49.671875 64.332031 C 49.464844 64.5625 48.996094 64.511719 48.796875 64.242188 C 48.664062 64.0625 48.640625 63.898438 48.613281 62.820312 C 48.582031 61.527344 48.65625 60.808594 48.871094 60.578125 C 49.042969 60.390625 49.492188 60.398438 49.671875 60.59375 Z M 49.671875 60.59375 "/>
<path style=" stroke:none;fill-rule:nonzero;fill:rgb(0%,0%,0%);fill-opacity:1;" d="M 58.175781 58.046875 C 57.796875 58.101562 57.027344 58.4375 56.695312 58.691406 C 56.554688 58.789062 56.515625 58.796875 56.488281 58.714844 C 56.472656 58.65625 56.421875 58.519531 56.375 58.398438 L 56.300781 58.199219 L 54.992188 58.214844 L 53.671875 58.234375 L 53.671875 66.539062 L 55.136719 66.5625 L 56.597656 66.578125 L 56.597656 60.964844 L 56.804688 60.882812 C 57.191406 60.726562 57.457031 60.71875 57.582031 60.855469 C 57.695312 60.964844 57.710938 61.257812 57.710938 63.777344 L 57.710938 66.578125 L 60.671875 66.578125 L 60.671875 61.039062 L 60.84375 60.9375 C 61.09375 60.765625 61.589844 60.703125 61.695312 60.832031 C 61.753906 60.914062 61.785156 61.714844 61.796875 63.742188 L 61.820312 66.539062 L 64.785156 66.539062 L 64.785156 63.058594 C 64.785156 59.214844 64.769531 59.101562 64.332031 58.585938 C 63.992188 58.175781 63.582031 58.027344 62.859375 58.027344 C 62.101562 58.027344 61.554688 58.191406 60.96875 58.585938 L 60.507812 58.894531 L 60.273438 58.625 C 59.863281 58.136719 59.035156 57.914062 58.175781 58.046875 Z M 58.175781 58.046875 "/>
<path style=" stroke:none;fill-rule:nonzero;fill:rgb(0%,0%,0%);fill-opacity:1;" d="M 68.5625 58.046875 C 66.644531 58.304688 65.636719 59.761719 65.636719 62.304688 C 65.636719 64.652344 66.554688 66.1875 68.230469 66.621094 C 68.613281 66.71875 68.917969 66.734375 69.746094 66.703125 C 70.71875 66.667969 72.023438 66.441406 72.167969 66.292969 C 72.238281 66.226562 72.023438 64.25 71.941406 64.160156 C 71.910156 64.128906 71.59375 64.175781 71.230469 64.257812 C 70.875 64.339844 70.332031 64.429688 70.042969 64.460938 C 69.324219 64.519531 68.894531 64.324219 68.71875 63.875 C 68.464844 63.246094 68.347656 63.285156 70.519531 63.285156 C 71.578125 63.285156 72.457031 63.253906 72.480469 63.21875 C 72.503906 63.179688 72.546875 62.621094 72.570312 61.96875 C 72.605469 61.003906 72.59375 60.683594 72.496094 60.261719 C 72.167969 58.886719 71.390625 58.21875 69.894531 58.042969 C 69.234375 57.964844 69.199219 57.964844 68.5625 58.046875 Z M 69.785156 60.800781 C 69.886719 60.929688 69.933594 61.101562 69.933594 61.347656 L 69.933594 61.714844 L 68.511719 61.714844 L 68.554688 61.355469 C 68.585938 61.160156 68.664062 60.921875 68.738281 60.816406 C 68.976562 60.488281 69.53125 60.472656 69.785156 60.800781 Z M 69.785156 60.800781 "/>
</g>
</svg>
